<svg xmlns="http://www.w3.org/2000/svg" width="29" height="43" fill="none" viewBox="0 0 29 43"><g clip-path="url(#clip0_104_461)"><path fill="#2D2D2D" fill-opacity=".6" d="M0.238556 21.2057C0.238556 21.0617 0.355282 20.9449 0.499272 20.9449H17.3325C21.9355 20.9449 25.6802 17.2384 25.7273 12.6356L25.7713 8.33651C25.8418 1.45322 17.0097 -1.43016 13.0051 4.16879L0.711331 21.3573C0.563828 21.5636 0.238556 21.4592 0.238556 21.2057V21.2057Z"/><path fill="#2D2D2D" fill-opacity=".6" d="M0 22.2347C0 22.3787 0.116726 22.4954 0.260716 22.4954H17.0939C21.697 22.4954 25.4416 26.2019 25.4887 30.8047L25.5328 35.1038C25.6032 41.9871 16.7711 44.8705 12.7666 39.2716L0.472775 22.083C0.325272 21.8768 0 21.9811 0 22.2347V22.2347Z"/><rect width="1.67" height=".239" x="14.55" y="19.275" fill="#fff"/><rect width="1.67" height=".239" x="14.55" y="19.633" fill="#fff"/><rect width="1.67" height=".239" x="14.55" y="19.991" fill="#fff"/><rect width="1.67" height=".239" x="14.55" y="20.349" fill="#fff"/><rect width="1.67" height=".239" x="14.55" y="20.706" fill="#fff"/><rect width="1.67" height=".239" x="14.55" y="21.064" fill="#fff"/><rect width="1.67" height=".239" x="14.55" y="21.422" fill="#fff"/><rect width="1.67" height=".239" x="14.55" y="21.78" fill="#fff"/><rect width="1.67" height=".239" x="14.55" y="22.138" fill="#fff"/><path fill="#fff" d="M14.5505 22.4954H16.2202V22.7339H14.5505V22.4954Z"/><path fill="#fff" d="M14.5505 22.8532H16.2202V23.0917H14.5505V22.8532Z"/><path fill="#fff" d="M14.5505 23.211H16.2202V23.4495H14.5505V23.211Z"/><path fill="#fff" d="M14.5505 23.5688H16.2202V23.8073H14.5505V23.5688Z"/><path fill="#fff" d="M14.5505 23.9266H16.2202V24.1651H14.5505V23.9266Z"/><rect width=".119" height="5.367" x="14.372" y="18.738" stroke="#fff" stroke-dasharray="6 6" stroke-linecap="round" stroke-width=".119"/><rect width=".119" height="5.367" x="16.28" y="18.738" stroke="#fff" stroke-dasharray="6 6" stroke-linecap="round" stroke-width=".119"/><path fill="#FEFEFE" d="M1.26255 33.6719C0.697013 32.6488 1.06794 31.3609 2.09103 30.7954L13.3053 24.5965C15.8812 23.1726 19.1236 24.1065 20.5475 26.6824V26.6824L5.14876 35.1944C3.86081 35.9063 2.23958 35.4394 1.52764 34.1514L1.26255 33.6719Z"/><path fill="#FEFEFE" d="M1.95203 8.6645C2.89837 7.08147 4.94883 6.56533 6.53186 7.51167L20.2476 15.711V15.711C18.355 18.877 14.254 19.9093 11.088 18.0166L2.05221 12.615C1.05055 12.0163 0.723957 10.7188 1.32275 9.71717L1.95203 8.6645Z"/><g filter="url(#filter0_d_104_461)"><path fill="#FEFEFE" d="M0.477066 8.66055C0.477066 6.81623 1.97219 5.32111 3.81651 5.32111H25.7615V5.32111C25.7615 9.00976 22.7712 12 19.0826 12H3.11872C1.65977 12 0.477066 10.8173 0.477066 9.35835V8.66055Z"/></g><g filter="url(#filter1_d_104_461)"><path fill="#FEFEFE" d="M0.477066 34.6606C0.477066 32.8162 1.97219 31.3211 3.81651 31.3211H25.7615V31.3211C25.7615 35.0098 22.7712 38 19.0826 38H3.11872C1.65977 38 0.477066 36.8173 0.477066 35.3583V34.6606Z"/></g></g><defs><filter id="filter0_d_104_461" width="39.284" height="20.679" x="-6.523" y="2.321" color-interpolation-filters="sRGB" filterUnits="userSpaceOnUse"><feFlood flood-opacity="0" result="BackgroundImageFix"/><feColorMatrix in="SourceAlpha" result="hardAlpha" type="matrix" values="0 0 0 0 0 0 0 0 0 0 0 0 0 0 0 0 0 0 127 0"/><feOffset dy="4"/><feGaussianBlur stdDeviation="3.5"/><feComposite in2="hardAlpha" operator="out"/><feColorMatrix type="matrix" values="0 0 0 0 0.541667 0 0 0 0 0.541667 0 0 0 0 0.541667 0 0 0 0.25 0"/><feBlend in2="BackgroundImageFix" mode="normal" result="effect1_dropShadow_104_461"/><feBlend in="SourceGraphic" in2="effect1_dropShadow_104_461" mode="normal" result="shape"/></filter><filter id="filter1_d_104_461" width="39.284" height="20.679" x="-6.523" y="25.321" color-interpolation-filters="sRGB" filterUnits="userSpaceOnUse"><feFlood flood-opacity="0" result="BackgroundImageFix"/><feColorMatrix in="SourceAlpha" result="hardAlpha" type="matrix" values="0 0 0 0 0 0 0 0 0 0 0 0 0 0 0 0 0 0 127 0"/><feOffset dy="1"/><feGaussianBlur stdDeviation="3.5"/><feComposite in2="hardAlpha" operator="out"/><feColorMatrix type="matrix" values="0 0 0 0 0.541667 0 0 0 0 0.541667 0 0 0 0 0.541667 0 0 0 0.25 0"/><feBlend in2="BackgroundImageFix" mode="normal" result="effect1_dropShadow_104_461"/><feBlend in="SourceGraphic" in2="effect1_dropShadow_104_461" mode="normal" result="shape"/></filter><clipPath id="clip0_104_461"><rect width="29" height="43" fill="#fff"/></clipPath></defs></svg>